Roman_opsz6_wght700.ufo
<glyph name="parenleft" format="2">
  <advance width="543"/>
  <unicode hex="0028"/>
  <outline>
    <contour>
      <point x="458" y="-228" type="curve" smooth="yes"/>
      <point x="458" y="-219"/>
      <point x="457" y="-218"/>
      <point x="435" y="-199" type="curve" smooth="yes"/>
      <point x="314" y="-102"/>
      <point x="248" y="68"/>
      <point x="248" y="250" type="curve" smooth="yes"/>
      <point x="248" y="395"/>
      <point x="291" y="583"/>
      <point x="438" y="703" type="curve" smooth="yes"/>
      <point x="455" y="717"/>
      <point x="458" y="719"/>
      <point x="458" y="729" type="curve" smooth="yes"/>
      <point x="458" y="741"/>
      <point x="450" y="750"/>
      <point x="432" y="750" type="curve" smooth="yes"/>
      <point x="419" y="750"/>
      <point x="398" y="735"/>
      <point x="382" y="724" type="curve" smooth="yes"/>
      <point x="234" y="624"/>
      <point x="133" y="449"/>
      <point x="133" y="251" type="curve" smooth="yes"/>
      <point x="133" y="157"/>
      <point x="155" y="44"/>
      <point x="228" y="-67" type="curve" smooth="yes"/>
      <point x="296" y="-171"/>
      <point x="406" y="-249"/>
      <point x="432" y="-249" type="curve" smooth="yes"/>
      <point x="450" y="-249"/>
      <point x="458" y="-240"/>
    </contour>
  </outline>
</glyph>
<glyph name="parenright" format="2">
  <advance width="543"/>
  <unicode hex="0029"/>
  <outline>
    <contour>
      <point x="409" y="250" type="curve" smooth="yes"/>
      <point x="409" y="344"/>
      <point x="387" y="457"/>
      <point x="314" y="568" type="curve" smooth="yes"/>
      <point x="246" y="672"/>
      <point x="136" y="750"/>
      <point x="110" y="750" type="curve" smooth="yes"/>
      <point x="96" y="750"/>
      <point x="84" y="744"/>
      <point x="84" y="729" type="curve" smooth="yes"/>
      <point x="84" y="720"/>
      <point x="85" y="719"/>
      <point x="108" y="699" type="curve" smooth="yes"/>
      <point x="217" y="612"/>
      <point x="294" y="449"/>
      <point x="294" y="251" type="curve" smooth="yes"/>
      <point x="294" y="101"/>
      <point x="249" y="-84"/>
      <point x="104" y="-202" type="curve" smooth="yes"/>
      <point x="88" y="-215"/>
      <point x="84" y="-218"/>
      <point x="84" y="-228" type="curve" smooth="yes"/>
      <point x="84" y="-243"/>
      <point x="96" y="-249"/>
      <point x="110" y="-249" type="curve" smooth="yes"/>
      <point x="123" y="-249"/>
      <point x="144" y="-234"/>
      <point x="160" y="-223" type="curve" smooth="yes"/>
      <point x="308" y="-123"/>
      <point x="409" y="52"/>
    </contour>
  </outline>
</glyph>
<glyph name="zero" format="2">
  <advance width="693"/>
  <unicode hex="0030"/>
  <outline>
    <contour>
      <point x="631" y="318" type="curve" smooth="yes"/>
      <point x="631" y="462"/>
      <point x="606" y="658"/>
      <point x="346" y="658" type="curve" smooth="yes"/>
      <point x="85" y="658"/>
      <point x="61" y="460"/>
      <point x="61" y="318" type="curve" smooth="yes"/>
      <point x="61" y="174"/>
      <point x="87" y="-14"/>
      <point x="346" y="-14" type="curve" smooth="yes"/>
      <point x="606" y="-14"/>
      <point x="631" y="176"/>
    </contour>
    <contour>
      <point x="346" y="37" type="curve" smooth="yes"/>
      <point x="312" y="37"/>
      <point x="231" y="47"/>
      <point x="215" y="139" type="curve" smooth="yes"/>
      <point x="205" y="193"/>
      <point x="205" y="263"/>
      <point x="205" y="331" type="curve" smooth="yes"/>
      <point x="205" y="394"/>
      <point x="205" y="473"/>
      <point x="216" y="520" type="curve" smooth="yes"/>
      <point x="235" y="594"/>
      <point x="305" y="607"/>
      <point x="346" y="607" type="curve" smooth="yes"/>
      <point x="382" y="607"/>
      <point x="461" y="597"/>
      <point x="477" y="513" type="curve" smooth="yes"/>
      <point x="487" y="461"/>
      <point x="487" y="397"/>
      <point x="487" y="331" type="curve" smooth="yes"/>
      <point x="487" y="270"/>
      <point x="487" y="193"/>
      <point x="477" y="139" type="curve" smooth="yes"/>
      <point x="460" y="48"/>
      <point x="384" y="37"/>
    </contour>
  </outline>
</glyph>
<glyph name="five" format="2">
  <advance width="693"/>
  <unicode hex="0035"/>
  <outline>
    <contour>
      <point x="208" y="493" type="line"/>
      <point x="231" y="490"/>
      <point x="278" y="488"/>
      <point x="287" y="488" type="curve" smooth="yes"/>
      <point x="336" y="488"/>
      <point x="403" y="499"/>
      <point x="466" y="536" type="curve" smooth="yes"/>
      <point x="484" y="547"/>
      <point x="563" y="600"/>
      <point x="563" y="632" type="curve" smooth="yes"/>
      <point x="563" y="650"/>
      <point x="554" y="658"/>
      <point x="542" y="658" type="curve" smooth="yes"/>
      <point x="540" y="658"/>
      <point x="538" y="658"/>
      <point x="524" y="653" type="curve"/>
      <point x="461" y="634"/>
      <point x="401" y="626"/>
      <point x="344" y="626" type="curve" smooth="yes"/>
      <point x="276" y="626"/>
      <point x="218" y="637"/>
      <point x="162" y="654" type="curve" smooth="yes"/>
      <point x="150" y="658"/>
      <point x="148" y="658"/>
      <point x="146" y="658" type="curve" smooth="yes"/>
      <point x="125" y="658"/>
      <point x="125" y="638"/>
      <point x="125" y="624" type="curve" smooth="yes"/>
      <point x="125" y="326" type="line" smooth="yes"/>
      <point x="125" y="300"/>
      <point x="127" y="290"/>
      <point x="159" y="290" type="curve" smooth="yes"/>
      <point x="179" y="290"/>
      <point x="180" y="291"/>
      <point x="191" y="303" type="curve" smooth="yes"/>
      <point x="230" y="346"/>
      <point x="287" y="361"/>
      <point x="348" y="361" type="curve" smooth="yes"/>
      <point x="463" y="361"/>
      <point x="463" y="270"/>
      <point x="463" y="207" type="curve" smooth="yes"/>
      <point x="463" y="143"/>
      <point x="463" y="41"/>
      <point x="312" y="41" type="curve" smooth="yes"/>
      <point x="270" y="41"/>
      <point x="214" y="53"/>
      <point x="180" y="86" type="curve"/>
      <point x="220" y="101"/>
      <point x="228" y="138"/>
      <point x="228" y="156" type="curve" smooth="yes"/>
      <point x="228" y="196"/>
      <point x="199" y="232"/>
      <point x="152" y="232" type="curve" smooth="yes"/>
      <point x="110" y="232"/>
      <point x="76" y="203"/>
      <point x="76" y="155" type="curve" smooth="yes"/>
      <point x="76" y="59"/>
      <point x="173" y="-14"/>
      <point x="315" y="-14" type="curve" smooth="yes"/>
      <point x="519" y="-14"/>
      <point x="616" y="89"/>
      <point x="616" y="201" type="curve" smooth="yes"/>
      <point x="616" y="302"/>
      <point x="539" y="412"/>
      <point x="353" y="412" type="curve" smooth="yes"/>
      <point x="315" y="412"/>
      <point x="258" y="407"/>
      <point x="208" y="379" type="curve"/>
    </contour>
  </outline>
</glyph>
<glyph name="six" format="2">
  <advance width="693"/>
  <unicode hex="0036"/>
  <outline>
    <contour>
      <point x="217" y="346" type="curve"/>
      <point x="217" y="439"/>
      <point x="229" y="488"/>
      <point x="255" y="529" type="curve" smooth="yes"/>
      <point x="290" y="581"/>
      <point x="355" y="608"/>
      <point x="420" y="608" type="curve" smooth="yes"/>
      <point x="446" y="608"/>
      <point x="472" y="602"/>
      <point x="491" y="589" type="curve"/>
      <point x="483" y="585"/>
      <point x="449" y="566"/>
      <point x="449" y="522" type="curve" smooth="yes"/>
      <point x="449" y="477"/>
      <point x="484" y="450"/>
      <point x="521" y="450" type="curve" smooth="yes"/>
      <point x="553" y="450"/>
      <point x="593" y="471"/>
      <point x="593" y="524" type="curve" smooth="yes"/>
      <point x="593" y="587"/>
      <point x="550" y="658"/>
      <point x="419" y="658" type="curve" smooth="yes"/>
      <point x="225" y="658"/>
      <point x="65" y="543"/>
      <point x="65" y="318" type="curve" smooth="yes"/>
      <point x="65" y="116"/>
      <point x="150" y="-14"/>
      <point x="351" y="-14" type="curve" smooth="yes"/>
      <point x="520" y="-14"/>
      <point x="627" y="74"/>
      <point x="627" y="205" type="curve" smooth="yes"/>
      <point x="627" y="254"/>
      <point x="616" y="314"/>
      <point x="553" y="363" type="curve" smooth="yes"/>
      <point x="504" y="401"/>
      <point x="458" y="422"/>
      <point x="362" y="422" type="curve" smooth="yes"/>
      <point x="288" y="422"/>
      <point x="243" y="379"/>
    </contour>
    <contour>
      <point x="350" y="41" type="curve" smooth="yes"/>
      <point x="224" y="41"/>
      <point x="220" y="154"/>
      <point x="220" y="213" type="curve" smooth="yes"/>
      <point x="220" y="308"/>
      <point x="277" y="370"/>
      <point x="358" y="370" type="curve" smooth="yes"/>
      <point x="475" y="370"/>
      <point x="475" y="293"/>
      <point x="475" y="206" type="curve" smooth="yes"/>
      <point x="475" y="120"/>
      <point x="475" y="41"/>
    </contour>
  </outline>
</glyph>
<glyph name="nine" format="2">
  <advance width="693"/>
  <unicode hex="0039"/>
  <outline>
    <contour>
      <point x="475" y="299" type="curve"/>
      <point x="475" y="215"/>
      <point x="466" y="165"/>
      <point x="445" y="124" type="curve" smooth="yes"/>
      <point x="414" y="69"/>
      <point x="352" y="41"/>
      <point x="289" y="41" type="curve" smooth="yes"/>
      <point x="256" y="41"/>
      <point x="225" y="48"/>
      <point x="206" y="58" type="curve"/>
      <point x="229" y="72"/>
      <point x="243" y="92"/>
      <point x="243" y="122" type="curve" smooth="yes"/>
      <point x="243" y="167"/>
      <point x="208" y="194"/>
      <point x="171" y="194" type="curve" smooth="yes"/>
      <point x="139" y="194"/>
      <point x="99" y="173"/>
      <point x="99" y="120" type="curve" smooth="yes"/>
      <point x="99" y="-14"/>
      <point x="264" y="-14"/>
      <point x="290" y="-14" type="curve" smooth="yes"/>
      <point x="474" y="-14"/>
      <point x="627" y="101"/>
      <point x="627" y="328" type="curve" smooth="yes"/>
      <point x="627" y="521"/>
      <point x="551" y="658"/>
      <point x="347" y="658" type="curve" smooth="yes"/>
      <point x="177" y="658"/>
      <point x="65" y="573"/>
      <point x="65" y="440" type="curve" smooth="yes"/>
      <point x="65" y="318"/>
      <point x="158" y="223"/>
      <point x="330" y="223" type="curve" smooth="yes"/>
      <point x="408" y="223"/>
      <point x="456" y="273"/>
    </contour>
    <contour>
      <point x="334" y="275" type="curve" smooth="yes"/>
      <point x="217" y="275"/>
      <point x="217" y="353"/>
      <point x="217" y="440" type="curve" smooth="yes"/>
      <point x="217" y="522"/>
      <point x="217" y="608"/>
      <point x="349" y="608" type="curve" smooth="yes"/>
      <point x="469" y="608"/>
      <point x="473" y="495"/>
      <point x="473" y="427" type="curve" smooth="yes"/>
      <point x="473" y="369"/>
      <point x="437" y="275"/>
    </contour>
  </outline>
</glyph>
<glyph name="semicolon" format="2">
  <advance width="393"/>
  <unicode hex="003B"/>
  <outline>
    <contour>
      <point x="280" y="360" type="curve" smooth="yes"/>
      <point x="280" y="408"/>
      <point x="240" y="444"/>
      <point x="197" y="444" type="curve" smooth="yes"/>
      <point x="149" y="444"/>
      <point x="113" y="404"/>
      <point x="113" y="361" type="curve" smooth="yes"/>
      <point x="113" y="313"/>
      <point x="153" y="277"/>
      <point x="196" y="277" type="curve" smooth="yes"/>
      <point x="244" y="277"/>
      <point x="280" y="317"/>
    </contour>
    <contour>
      <point x="231" y="6" type="curve"/>
      <point x="226" y="-32"/>
      <point x="209" y="-94"/>
      <point x="145" y="-149" type="curve" smooth="yes"/>
      <point x="140" y="-153"/>
      <point x="135" y="-157"/>
      <point x="135" y="-167" type="curve" smooth="yes"/>
      <point x="135" y="-179"/>
      <point x="150" y="-194"/>
      <point x="162" y="-194" type="curve" smooth="yes"/>
      <point x="181" y="-194"/>
      <point x="284" y="-104"/>
      <point x="284" y="37" type="curve" smooth="yes"/>
      <point x="284" y="111"/>
      <point x="252" y="167"/>
      <point x="196" y="167" type="curve" smooth="yes"/>
      <point x="146" y="167"/>
      <point x="113" y="129"/>
      <point x="113" y="84" type="curve" smooth="yes"/>
      <point x="113" y="38"/>
      <point x="146" y="0"/>
      <point x="197" y="0" type="curve" smooth="yes"/>
      <point x="216" y="0"/>
      <point x="224" y="3"/>
    </contour>
  </outline>
</glyph>
<glyph name="A" format="2">
  <advance width="1028"/>
  <unicode hex="0041"/>
  <outline>
    <contour>
      <point x="584" y="678" type="line" smooth="yes"/>
      <point x="571" y="707"/>
      <point x="556" y="707"/>
      <point x="534" y="707" type="curve" smooth="yes"/>
      <point x="493" y="707" type="line" smooth="yes"/>
      <point x="474" y="707"/>
      <point x="456" y="707"/>
      <point x="443" y="679" type="curve" smooth="yes"/>
      <point x="167" y="76" type="line" smooth="yes"/>
      <point x="161" y="64"/>
      <point x="160" y="63"/>
      <point x="140" y="61" type="curve" smooth="yes"/>
      <point x="129" y="60"/>
      <point x="109" y="60"/>
      <point x="98" y="60" type="curve" smooth="yes"/>
      <point x="59" y="60" type="line"/>
      <point x="59" y="0" type="line"/>
      <point x="81" y="1"/>
      <point x="145" y="4"/>
      <point x="191" y="4" type="curve" smooth="yes"/>
      <point x="231" y="4"/>
      <point x="320" y="1"/>
      <point x="338" y="0" type="curve"/>
      <point x="338" y="60" type="line"/>
      <point x="317" y="60" type="line" smooth="yes"/>
      <point x="310" y="60"/>
      <point x="254" y="60"/>
      <point x="254" y="66" type="curve" smooth="yes"/>
      <point x="254" y="67"/>
      <point x="259" y="76"/>
      <point x="259" y="77" type="curve"/>
      <point x="316" y="202" type="line"/>
      <point x="642" y="202" type="line"/>
      <point x="708" y="60" type="line"/>
      <point x="620" y="60" type="line"/>
      <point x="620" y="0" type="line"/>
      <point x="675" y="4"/>
      <point x="746" y="4"/>
      <point x="802" y="4" type="curve" smooth="yes"/>
      <point x="860" y="4"/>
      <point x="925" y="2"/>
      <point x="968" y="0" type="curve"/>
      <point x="968" y="60" type="line"/>
      <point x="868" y="60" type="line"/>
    </contour>
    <contour>
      <point x="479" y="558" type="line"/>
      <point x="615" y="262" type="line"/>
      <point x="343" y="262" type="line"/>
    </contour>
  </outline>
</glyph>
<glyph name="D" format="2">
  <advance width="1048"/>
  <unicode hex="0044"/>
  <outline>
    <contour>
      <point x="73" y="686" type="line"/>
      <point x="73" y="626" type="line"/>
      <point x="179" y="626" type="line"/>
      <point x="179" y="60" type="line"/>
      <point x="73" y="60" type="line"/>
      <point x="73" y="0" type="line"/>
      <point x="560" y="0" type="line" smooth="yes"/>
      <point x="798" y="0"/>
      <point x="963" y="134"/>
      <point x="963" y="337" type="curve" smooth="yes"/>
      <point x="963" y="546"/>
      <point x="799" y="686"/>
      <point x="559" y="686" type="curve" smooth="yes"/>
    </contour>
    <contour>
      <point x="325" y="60" type="line"/>
      <point x="325" y="626" type="line"/>
      <point x="517" y="626" type="line" smooth="yes"/>
      <point x="803" y="626"/>
      <point x="803" y="427"/>
      <point x="803" y="339" type="curve" smooth="yes"/>
      <point x="803" y="250"/>
      <point x="803" y="60"/>
      <point x="519" y="60" type="curve" smooth="yes"/>
    </contour>
  </outline>
</glyph>
<glyph name="E" format="2">
  <advance width="900"/>
  <unicode hex="0045"/>
  <outline>
    <contour>
      <point x="852" y="254" type="line"/>
      <point x="781" y="254" type="line"/>
      <point x="748" y="91"/>
      <point x="668" y="60"/>
      <point x="529" y="60" type="curve" smooth="yes"/>
      <point x="330" y="60" type="line"/>
      <point x="330" y="322" type="line"/>
      <point x="406" y="322" type="line" smooth="yes"/>
      <point x="476" y="322"/>
      <point x="524" y="312"/>
      <point x="524" y="222" type="curve"/>
      <point x="595" y="222" type="line"/>
      <point x="595" y="482" type="line"/>
      <point x="524" y="482" type="line"/>
      <point x="524" y="392"/>
      <point x="477" y="382"/>
      <point x="406" y="382" type="curve" smooth="yes"/>
      <point x="330" y="382" type="line"/>
      <point x="330" y="619" type="line"/>
      <point x="518" y="619" type="line" smooth="yes"/>
      <point x="639" y="619"/>
      <point x="720" y="599"/>
      <point x="743" y="452" type="curve"/>
      <point x="814" y="452" type="line"/>
      <point x="778" y="679" type="line"/>
      <point x="71" y="679" type="line"/>
      <point x="71" y="619" type="line"/>
      <point x="177" y="619" type="line"/>
      <point x="177" y="60" type="line"/>
      <point x="71" y="60" type="line"/>
      <point x="71" y="0" type="line"/>
      <point x="798" y="0" type="line"/>
    </contour>
  </outline>
</glyph>
<glyph name="H" format="2">
  <advance width="1064"/>
  <unicode hex="0048"/>
  <outline>
    <contour>
      <point x="886" y="626" type="line"/>
      <point x="992" y="626" type="line"/>
      <point x="992" y="686" type="line"/>
      <point x="952" y="684"/>
      <point x="824" y="682"/>
      <point x="810" y="682" type="curve" smooth="yes"/>
      <point x="805" y="682"/>
      <point x="671" y="683"/>
      <point x="627" y="686" type="curve"/>
      <point x="627" y="626" type="line"/>
      <point x="733" y="626" type="line"/>
      <point x="733" y="387" type="line"/>
      <point x="330" y="387" type="line"/>
      <point x="330" y="626" type="line"/>
      <point x="436" y="626" type="line"/>
      <point x="436" y="686" type="line"/>
      <point x="396" y="684"/>
      <point x="268" y="682"/>
      <point x="254" y="682" type="curve" smooth="yes"/>
      <point x="249" y="682"/>
      <point x="115" y="683"/>
      <point x="71" y="686" type="curve"/>
      <point x="71" y="626" type="line"/>
      <point x="177" y="626" type="line"/>
      <point x="177" y="60" type="line"/>
      <point x="71" y="60" type="line"/>
      <point x="71" y="0" type="line"/>
      <point x="111" y="2"/>
      <point x="239" y="4"/>
      <point x="253" y="4" type="curve" smooth="yes"/>
      <point x="258" y="4"/>
      <point x="392" y="3"/>
      <point x="436" y="0" type="curve"/>
      <point x="436" y="60" type="line"/>
      <point x="330" y="60" type="line"/>
      <point x="330" y="327" type="line"/>
      <point x="733" y="327" type="line"/>
      <point x="733" y="60" type="line"/>
      <point x="627" y="60" type="line"/>
      <point x="627" y="0" type="line"/>
      <point x="667" y="2"/>
      <point x="795" y="4"/>
      <point x="809" y="4" type="curve" smooth="yes"/>
      <point x="814" y="4"/>
      <point x="948" y="3"/>
      <point x="992" y="0" type="curve"/>
      <point x="992" y="60" type="line"/>
      <point x="886" y="60" type="line"/>
    </contour>
  </outline>
</glyph>
<glyph name="V" format="2">
  <advance width="1028"/>
  <unicode hex="0056"/>
  <outline>
    <contour>
      <point x="881" y="610" type="line" smooth="yes"/>
      <point x="887" y="622"/>
      <point x="888" y="623"/>
      <point x="908" y="625" type="curve" smooth="yes"/>
      <point x="919" y="626"/>
      <point x="938" y="626"/>
      <point x="949" y="626" type="curve" smooth="yes"/>
      <point x="985" y="626" type="line"/>
      <point x="985" y="686" type="line"/>
      <point x="950" y="683"/>
      <point x="873" y="682"/>
      <point x="858" y="682" type="curve" smooth="yes"/>
      <point x="818" y="682"/>
      <point x="729" y="685"/>
      <point x="711" y="686" type="curve"/>
      <point x="711" y="626" type="line"/>
      <point x="731" y="626" type="line" smooth="yes"/>
      <point x="768" y="626"/>
      <point x="770" y="626"/>
      <point x="795" y="622" type="curve"/>
      <point x="548" y="126" type="line"/>
      <point x="300" y="626" type="line"/>
      <point x="385" y="626" type="line"/>
      <point x="385" y="686" type="line"/>
      <point x="332" y="682"/>
      <point x="258" y="682"/>
      <point x="204" y="682" type="curve" smooth="yes"/>
      <point x="156" y="682"/>
      <point x="74" y="685"/>
      <point x="42" y="686" type="curve"/>
      <point x="42" y="626" type="line"/>
      <point x="137" y="626" type="line"/>
      <point x="441" y="15" type="line" smooth="yes"/>
      <point x="455" y="-14"/>
      <point x="472" y="-14"/>
      <point x="493" y="-14" type="curve" smooth="yes"/>
      <point x="534" y="-14" type="line" smooth="yes"/>
      <point x="556" y="-14"/>
      <point x="571" y="-14"/>
      <point x="585" y="14" type="curve" smooth="yes"/>
    </contour>
  </outline>
</glyph>
<glyph name="bracketleft" format="2">
  <advance width="395"/>
  <unicode hex="005B"/>
  <outline>
    <contour>
      <point x="355" y="671" type="line"/>
      <point x="355" y="750" type="line"/>
      <point x="156" y="750" type="line"/>
      <point x="156" y="-250" type="line"/>
      <point x="355" y="-250" type="line"/>
      <point x="355" y="-171" type="line"/>
      <point x="235" y="-171" type="line"/>
      <point x="235" y="671" type="line"/>
    </contour>
  </outline>
</glyph>
<glyph name="bracketright" format="2">
  <advance width="395"/>
  <unicode hex="005D"/>
  <outline>
    <contour>
      <point x="237" y="750" type="line"/>
      <point x="38" y="750" type="line"/>
      <point x="38" y="671" type="line"/>
      <point x="158" y="671" type="line"/>
      <point x="158" y="-171" type="line"/>
      <point x="38" y="-171" type="line"/>
      <point x="38" y="-250" type="line"/>
      <point x="237" y="-250" type="line"/>
    </contour>
  </outline>
</glyph>
<glyph name="h" format="2">
  <advance width="768"/>
  <unicode hex="0068"/>
  <outline>
    <contour>
      <point x="651" y="298" type="line" smooth="yes"/>
      <point x="651" y="430"/>
      <point x="558" y="451"/>
      <point x="470" y="451" type="curve" smooth="yes"/>
      <point x="350" y="451"/>
      <point x="291" y="389"/>
      <point x="269" y="361" type="curve"/>
      <point x="269" y="694" type="line"/>
      <point x="77" y="686" type="line"/>
      <point x="77" y="626" type="line"/>
      <point x="139" y="626"/>
      <point x="146" y="626"/>
      <point x="146" y="587" type="curve" smooth="yes"/>
      <point x="146" y="60" type="line"/>
      <point x="77" y="60" type="line"/>
      <point x="77" y="0" type="line"/>
      <point x="100" y="1"/>
      <point x="166" y="4"/>
      <point x="211" y="4" type="curve" smooth="yes"/>
      <point x="262" y="4"/>
      <point x="329" y="1"/>
      <point x="345" y="0" type="curve"/>
      <point x="345" y="60" type="line"/>
      <point x="276" y="60" type="line"/>
      <point x="276" y="247" type="line" smooth="yes"/>
      <point x="276" y="363"/>
      <point x="389" y="400"/>
      <point x="451" y="400" type="curve" smooth="yes"/>
      <point x="499" y="400"/>
      <point x="521" y="380"/>
      <point x="521" y="305" type="curve" smooth="yes"/>
      <point x="521" y="60" type="line"/>
      <point x="452" y="60" type="line"/>
      <point x="452" y="0" type="line"/>
      <point x="475" y="1"/>
      <point x="541" y="4"/>
      <point x="586" y="4" type="curve" smooth="yes"/>
      <point x="637" y="4"/>
      <point x="704" y="1"/>
      <point x="720" y="0" type="curve"/>
      <point x="720" y="60" type="line"/>
      <point x="651" y="60" type="line"/>
    </contour>
  </outline>
</glyph>
<glyph name="exclamdown" format="2">
  <advance width="429"/>
  <unicode hex="00A1"/>
  <outline>
    <contour>
      <point x="298" y="416" type="curve" smooth="yes"/>
      <point x="298" y="465"/>
      <point x="258" y="500"/>
      <point x="215" y="500" type="curve" smooth="yes"/>
      <point x="166" y="500"/>
      <point x="131" y="460"/>
      <point x="131" y="417" type="curve" smooth="yes"/>
      <point x="131" y="368"/>
      <point x="171" y="333"/>
      <point x="214" y="333" type="curve" smooth="yes"/>
      <point x="263" y="333"/>
      <point x="298" y="373"/>
    </contour>
    <contour>
      <point x="134" y="-104" type="line"/>
      <point x="134" y="-105"/>
      <point x="131" y="-127"/>
      <point x="131" y="-130" type="curve" smooth="yes"/>
      <point x="131" y="-182"/>
      <point x="177" y="-208"/>
      <point x="214" y="-208" type="curve" smooth="yes"/>
      <point x="254" y="-208"/>
      <point x="298" y="-180"/>
      <point x="298" y="-130" type="curve" smooth="yes"/>
      <point x="298" y="-127"/>
      <point x="295" y="-106"/>
      <point x="295" y="-104" type="curve"/>
      <point x="251" y="234" type="line" smooth="yes"/>
      <point x="248" y="260"/>
      <point x="246" y="264"/>
      <point x="214" y="264" type="curve" smooth="yes"/>
      <point x="186" y="264"/>
      <point x="181" y="262"/>
      <point x="178" y="235" type="curve" smooth="yes"/>
    </contour>
  </outline>
</glyph>
<glyph name="macron" format="2">
  <advance width="693"/>
  <unicode hex="00AF"/>
  <outline>
    <contour>
      <point x="589" y="558" type="line"/>
      <point x="589" y="625" type="line"/>
      <point x="103" y="625" type="line"/>
      <point x="103" y="558" type="line"/>
    </contour>
  </outline>
</glyph>
<glyph name="cedilla" format="2">
  <advance width="618"/>
  <unicode hex="00B8"/>
  <outline>
    <contour>
      <point x="363" y="-14" type="line"/>
      <point x="281" y="-11" type="line"/>
      <point x="281" y="-63" type="line"/>
      <point x="327" y="-63"/>
      <point x="393" y="-64"/>
      <point x="393" y="-109" type="curve" smooth="yes"/>
      <point x="393" y="-122"/>
      <point x="393" y="-146"/>
      <point x="296" y="-155" type="curve" smooth="yes"/>
      <point x="252" y="-159"/>
      <point x="212" y="-156"/>
      <point x="169" y="-159" type="curve"/>
      <point x="169" y="-210" type="line"/>
      <point x="219" y="-206"/>
      <point x="278" y="-210"/>
      <point x="335" y="-206" type="curve" smooth="yes"/>
      <point x="460" y="-196"/>
      <point x="523" y="-169"/>
      <point x="523" y="-109" type="curve" smooth="yes"/>
      <point x="523" y="-49"/>
      <point x="470" y="-26"/>
      <point x="411" y="-18" type="curve"/>
    </contour>
  </outline>
</glyph>
<glyph name="oslash" format="2">
  <advance width="693"/>
  <unicode hex="00F8"/>
  <outline>
    <contour>
      <point x="602" y="527" type="line"/>
      <point x="560" y="557" type="line"/>
      <point x="473" y="438" type="line"/>
      <point x="452" y="444"/>
      <point x="405" y="455"/>
      <point x="346" y="455" type="curve" smooth="yes"/>
      <point x="130" y="455"/>
      <point x="46" y="331"/>
      <point x="46" y="218" type="curve" smooth="yes"/>
      <point x="46" y="137"/>
      <point x="91" y="65"/>
      <point x="171" y="28" type="curve"/>
      <point x="90" y="-82" type="line"/>
      <point x="132" y="-112" type="line"/>
      <point x="220" y="9" type="line"/>
      <point x="271" y="-5"/>
      <point x="317" y="-7"/>
      <point x="346" y="-7" type="curve" smooth="yes"/>
      <point x="558" y="-7"/>
      <point x="646" y="105"/>
      <point x="646" y="218" type="curve" smooth="yes"/>
      <point x="646" y="261"/>
      <point x="633" y="358"/>
      <point x="522" y="418" type="curve"/>
    </contour>
    <contour>
      <point x="213" y="85" type="line"/>
      <point x="177" y="117"/>
      <point x="176" y="172"/>
      <point x="176" y="219" type="curve" smooth="yes"/>
      <point x="176" y="292"/>
      <point x="176" y="404"/>
      <point x="346" y="404" type="curve" smooth="yes"/>
      <point x="371" y="404"/>
      <point x="404" y="402"/>
      <point x="436" y="389" type="curve"/>
    </contour>
    <contour>
      <point x="479" y="360" type="line"/>
      <point x="515" y="323"/>
      <point x="516" y="265"/>
      <point x="516" y="219" type="curve" smooth="yes"/>
      <point x="516" y="145"/>
      <point x="516" y="44"/>
      <point x="346" y="44" type="curve" smooth="yes"/>
      <point x="335" y="44"/>
      <point x="292" y="44"/>
      <point x="256" y="57" type="curve"/>
    </contour>
  </outline>
</glyph>
<glyph name="oe" format="2">
  <advance width="1068"/>
  <unicode hex="0153"/>
  <outline>
    <contour>
      <point x="985" y="204" type="line" smooth="yes"/>
      <point x="1007" y="204"/>
      <point x="1021" y="204"/>
      <point x="1021" y="236" type="curve" smooth="yes"/>
      <point x="1021" y="269"/>
      <point x="1015" y="344"/>
      <point x="962" y="397" type="curve" smooth="yes"/>
      <point x="909" y="449"/>
      <point x="834" y="455"/>
      <point x="790" y="455" type="curve" smooth="yes"/>
      <point x="728" y="455"/>
      <point x="638" y="443"/>
      <point x="570" y="380" type="curve"/>
      <point x="558" y="392"/>
      <point x="490" y="455"/>
      <point x="341" y="455" type="curve" smooth="yes"/>
      <point x="132" y="455"/>
      <point x="46" y="338"/>
      <point x="46" y="225" type="curve" smooth="yes"/>
      <point x="46" y="113"/>
      <point x="131" y="-7"/>
      <point x="341" y="-7" type="curve" smooth="yes"/>
      <point x="424" y="-7"/>
      <point x="507" y="11"/>
      <point x="572" y="71" type="curve"/>
      <point x="617" y="29"/>
      <point x="693" y="-7"/>
      <point x="807" y="-7" type="curve" smooth="yes"/>
      <point x="987" y="-7"/>
      <point x="1021" y="101"/>
      <point x="1021" y="113" type="curve" smooth="yes"/>
      <point x="1021" y="136"/>
      <point x="999" y="136"/>
      <point x="985" y="136" type="curve" smooth="yes"/>
      <point x="962" y="136"/>
      <point x="958" y="135"/>
      <point x="950" y="116" type="curve" smooth="yes"/>
      <point x="931" y="76"/>
      <point x="887" y="49"/>
      <point x="825" y="49" type="curve" smooth="yes"/>
      <point x="786" y="49"/>
      <point x="731" y="56"/>
      <point x="688" y="90" type="curve" smooth="yes"/>
      <point x="657" y="115"/>
      <point x="641" y="151"/>
      <point x="637" y="204" type="curve"/>
    </contour>
    <contour>
      <point x="637" y="251" type="line"/>
      <point x="639" y="317"/>
      <point x="665" y="404"/>
      <point x="790" y="404" type="curve" smooth="yes"/>
      <point x="883" y="404"/>
      <point x="918" y="338"/>
      <point x="920" y="251" type="curve"/>
    </contour>
    <contour>
      <point x="341" y="44" type="curve" smooth="yes"/>
      <point x="175" y="44"/>
      <point x="175" y="181"/>
      <point x="175" y="229" type="curve" smooth="yes"/>
      <point x="175" y="278"/>
      <point x="175" y="404"/>
      <point x="341" y="404" type="curve" smooth="yes"/>
      <point x="506" y="404"/>
      <point x="506" y="278"/>
      <point x="506" y="229" type="curve" smooth="yes"/>
      <point x="506" y="180"/>
      <point x="506" y="44"/>
    </contour>
  </outline>
</glyph>
<glyph name="caron" format="2">
  <advance width="693"/>
  <unicode hex="02C7"/>
  <outline>
    <contour>
      <point x="346" y="611" type="line"/>
      <point x="192" y="665" type="line"/>
      <point x="164" y="599" type="line"/>
      <point x="346" y="514" type="line"/>
      <point x="528" y="599" type="line"/>
      <point x="500" y="665" type="line"/>
    </contour>
  </outline>
</glyph>
<glyph name="Upsilon" format="2">
  <advance width="1068"/>
  <unicode hex="03A5"/>
  <outline>
    <contour>
      <point x="610" y="343" type="line" smooth="yes"/>
      <point x="610" y="419"/>
      <point x="646" y="575"/>
      <point x="801" y="575" type="curve" smooth="yes"/>
      <point x="895" y="575"/>
      <point x="898" y="560"/>
      <point x="900" y="547" type="curve" smooth="yes"/>
      <point x="904" y="526"/>
      <point x="918" y="526"/>
      <point x="935" y="526" type="curve" smooth="yes"/>
      <point x="948" y="526" type="line" smooth="yes"/>
      <point x="965" y="526"/>
      <point x="983" y="526"/>
      <point x="983" y="553" type="curve" smooth="yes"/>
      <point x="983" y="632"/>
      <point x="899" y="700"/>
      <point x="790" y="700" type="curve" smooth="yes"/>
      <point x="647" y="700"/>
      <point x="562" y="577"/>
      <point x="534" y="466" type="curve"/>
      <point x="533" y="466" type="line"/>
      <point x="498" y="595"/>
      <point x="409" y="700"/>
      <point x="277" y="700" type="curve" smooth="yes"/>
      <point x="168" y="700"/>
      <point x="84" y="632"/>
      <point x="84" y="553" type="curve" smooth="yes"/>
      <point x="84" y="526"/>
      <point x="102" y="526"/>
      <point x="119" y="526" type="curve" smooth="yes"/>
      <point x="132" y="526" type="line" smooth="yes"/>
      <point x="148" y="526"/>
      <point x="163" y="526"/>
      <point x="167" y="545" type="curve" smooth="yes"/>
      <point x="170" y="561"/>
      <point x="173" y="575"/>
      <point x="266" y="575" type="curve" smooth="yes"/>
      <point x="422" y="575"/>
      <point x="457" y="417"/>
      <point x="457" y="343" type="curve" smooth="yes"/>
      <point x="457" y="60" type="line"/>
      <point x="324" y="60" type="line"/>
      <point x="324" y="0" type="line"/>
      <point x="372" y="4"/>
      <point x="480" y="4"/>
      <point x="533" y="4" type="curve" smooth="yes"/>
      <point x="586" y="4"/>
      <point x="695" y="4"/>
      <point x="743" y="0" type="curve"/>
      <point x="743" y="60" type="line"/>
      <point x="610" y="60" type="line"/>
    </contour>
  </outline>
</glyph>
<glyph name="endash" format="2">
  <advance width="693"/>
  <unicode hex="2013"/>
  <outline>
    <contour>
      <point x="683" y="249" type="line"/>
      <point x="683" y="300" type="line"/>
      <point x="9" y="300" type="line"/>
      <point x="9" y="249" type="line"/>
    </contour>
  </outline>
</glyph>
<glyph name="emdash" format="2">
  <advance width="1387"/>
  <unicode hex="2014"/>
  <outline>
    <contour>
      <point x="1367" y="249" type="line"/>
      <point x="1367" y="300" type="line"/>
      <point x="18" y="300" type="line"/>
      <point x="18" y="249" type="line"/>
    </contour>
  </outline>
</glyph>
<glyph name="dotlessj" format="2">
  <advance width="431"/>
  <outline>
    <contour>
      <point x="126" y="443" type="line"/>
      <point x="126" y="383" type="line"/>
      <point x="143" y="383"/>
      <point x="165" y="383"/>
      <point x="180" y="381" type="curve" smooth="yes"/>
      <point x="202" y="377"/>
      <point x="202" y="364"/>
      <point x="202" y="343" type="curve" smooth="yes"/>
      <point x="202" y="-35" type="line" smooth="yes"/>
      <point x="202" y="-106"/>
      <point x="165" y="-150"/>
      <point x="116" y="-150" type="curve" smooth="yes"/>
      <point x="108" y="-150"/>
      <point x="81" y="-148"/>
      <point x="81" y="-145" type="curve" smooth="yes"/>
      <point x="81" y="-144"/>
      <point x="81" y="-143"/>
      <point x="84" y="-138" type="curve" smooth="yes"/>
      <point x="89" y="-130"/>
      <point x="95" y="-117"/>
      <point x="95" y="-99" type="curve" smooth="yes"/>
      <point x="95" y="-57"/>
      <point x="65" y="-27"/>
      <point x="23" y="-27" type="curve" smooth="yes"/>
      <point x="-19" y="-27"/>
      <point x="-49" y="-57"/>
      <point x="-49" y="-99" type="curve" smooth="yes"/>
      <point x="-49" y="-164"/>
      <point x="16" y="-201"/>
      <point x="114" y="-201" type="curve" smooth="yes"/>
      <point x="205" y="-201"/>
      <point x="325" y="-157"/>
      <point x="325" y="-36" type="curve" smooth="yes"/>
      <point x="325" y="451" type="line"/>
    </contour>
  </outline>
</glyph>
